# xmcd CD database file
#
# Track frame offsets:
#	150
#	20566
#	33654
#	51278
#	66202
#	82181
#	98258
#	114812
#	129881
#	148546
#	161301
#	178939
#	195531
#	209121
#	225492
#	241053
#	256477
#	273288
#
# Disc length: 3842 seconds
#
# Revision: 4
# Processed by: cddbd v1.5.2PL0 Copyright (c) Steve Scherf et al.
# Submitted via: CDex 1.51
#
DISCID=f30f0012
DTITLE=Various Artist - RC98
DYEAR=2006
DGENRE=Country
TTITLE0=Rascal Flatts - Life Is A Highway (Cars Soundtrack)
TTITLE1=Gretchen Wilson - California Girls
TTITLE2=Kenny Chesney - You Save Me
TTITLE3=Carrie Underwood - Before He Cheats
TTITLE4=Heartland - I Loved Her First
TTITLE5=Matt Jenkins - Bad As I Want To
TTITLE6=Taylor Swift - Tim McGraw
TTITLE7=Jason Aldean - Amarillo Sky
TTITLE8=Keith Urban - Once In A Lifetime (Radio Edit)
TTITLE9=Jack Ingram - Love You
TTITLE10=Lonestar - Mountains
TTITLE11=Dierks Bentley - Every Mile A Memory
TTITLE12=Emerson Drive - A Good Man
TTITLE13=Tim McGraw - My Little Girl
TTITLE14=Sugarland - Want To
TTITLE15=Alan Jackson - Like Red On A Rose
TTITLE16=Bomshel - Ain't My Day To Care
TTITLE17=Montgomery Gentry - Some People Change
EXTD=YEAR: 2006
EXTT0=
EXTT1=
EXTT2=
EXTT3=
EXTT4=
EXTT5=
EXTT6=
EXTT7=
EXTT8=
EXTT9=
EXTT10=
EXTT11=
EXTT12=
EXTT13=
EXTT14=
EXTT15=
EXTT16=
EXTT17=
PLAYORDER=
